<mxfile host="app.diagrams.net" modified="2024-01-29T10:38:57.672Z" agent="Mozilla/5.0 (Windows NT 10.0; Win64; x64) AppleWebKit/537.36 (KHTML, like Gecko) Chrome/121.0.0.0 Safari/537.36" etag="Jd7wPdOfXziwB4W7o1Ls" version="23.0.2" type="device">
  <diagram name="Page-1" id="-ifq5rw0ivwShFcYinFc">
    <mxGraphModel dx="1248" dy="693" grid="1" gridSize="10" guides="1" tooltips="1" connect="1" arrows="1" fold="1" page="1" pageScale="1" pageWidth="827" pageHeight="1169" math="0" shadow="0">
      <root>
        <mxCell id="0" />
        <mxCell id="1" parent="0" />
        <mxCell id="5nu_3Wuoea0Fm3jb08SG-3" value="&lt;u&gt;Bilo koja stranica portala&lt;/u&gt;" style="shape=umlLifeline;perimeter=lifelinePerimeter;whiteSpace=wrap;html=1;container=0;dropTarget=0;collapsible=0;recursiveResize=0;outlineConnect=0;portConstraint=eastwest;newEdgeStyle={&quot;edgeStyle&quot;:&quot;elbowEdgeStyle&quot;,&quot;elbow&quot;:&quot;vertical&quot;,&quot;curved&quot;:0,&quot;rounded&quot;:0};strokeColor=#b85450;movable=1;resizable=1;rotatable=1;deletable=1;editable=1;locked=0;connectable=1;fillColor=#f8cecc;" vertex="1" parent="1">
          <mxGeometry x="190" y="180" width="160" height="680" as="geometry" />
        </mxCell>
        <mxCell id="5nu_3Wuoea0Fm3jb08SG-4" value="" style="html=1;points=[];perimeter=orthogonalPerimeter;outlineConnect=0;targetShapes=umlLifeline;portConstraint=eastwest;newEdgeStyle={&quot;edgeStyle&quot;:&quot;elbowEdgeStyle&quot;,&quot;elbow&quot;:&quot;vertical&quot;,&quot;curved&quot;:0,&quot;rounded&quot;:0};movable=1;resizable=1;rotatable=1;deletable=1;editable=1;locked=0;connectable=1;" vertex="1" parent="5nu_3Wuoea0Fm3jb08SG-3">
          <mxGeometry x="76.25" y="90" width="10" height="20" as="geometry" />
        </mxCell>
        <mxCell id="5nu_3Wuoea0Fm3jb08SG-5" value="" style="html=1;points=[];perimeter=orthogonalPerimeter;outlineConnect=0;targetShapes=umlLifeline;portConstraint=eastwest;newEdgeStyle={&quot;edgeStyle&quot;:&quot;elbowEdgeStyle&quot;,&quot;elbow&quot;:&quot;vertical&quot;,&quot;curved&quot;:0,&quot;rounded&quot;:0};" vertex="1" parent="5nu_3Wuoea0Fm3jb08SG-3">
          <mxGeometry x="76.25" y="120" width="10" height="30" as="geometry" />
        </mxCell>
        <mxCell id="5nu_3Wuoea0Fm3jb08SG-6" value="&amp;lt;prikaÅ¾i&amp;gt;" style="html=1;verticalAlign=bottom;endArrow=block;edgeStyle=elbowEdgeStyle;elbow=vertical;curved=0;rounded=0;" edge="1" parent="5nu_3Wuoea0Fm3jb08SG-3" target="5nu_3Wuoea0Fm3jb08SG-47">
          <mxGeometry x="-0.1396" relative="1" as="geometry">
            <mxPoint x="86.25" y="120" as="sourcePoint" />
            <Array as="points">
              <mxPoint x="186.25" y="120.30000000000001" />
            </Array>
            <mxPoint x="230.75" y="120.30000000000001" as="targetPoint" />
            <mxPoint as="offset" />
          </mxGeometry>
        </mxCell>
        <mxCell id="5nu_3Wuoea0Fm3jb08SG-7" value="" style="html=1;points=[];perimeter=orthogonalPerimeter;outlineConnect=0;targetShapes=umlLifeline;portConstraint=eastwest;newEdgeStyle={&quot;edgeStyle&quot;:&quot;elbowEdgeStyle&quot;,&quot;elbow&quot;:&quot;vertical&quot;,&quot;curved&quot;:0,&quot;rounded&quot;:0};" vertex="1" parent="5nu_3Wuoea0Fm3jb08SG-3">
          <mxGeometry x="75" y="550" width="10" height="20" as="geometry" />
        </mxCell>
        <mxCell id="5nu_3Wuoea0Fm3jb08SG-8" value="" style="html=1;points=[];perimeter=orthogonalPerimeter;outlineConnect=0;targetShapes=umlLifeline;portConstraint=eastwest;newEdgeStyle={&quot;edgeStyle&quot;:&quot;elbowEdgeStyle&quot;,&quot;elbow&quot;:&quot;vertical&quot;,&quot;curved&quot;:0,&quot;rounded&quot;:0};movable=1;resizable=1;rotatable=1;deletable=1;editable=1;locked=0;connectable=1;" vertex="1" parent="5nu_3Wuoea0Fm3jb08SG-3">
          <mxGeometry x="76.25" y="600" width="10" height="40" as="geometry" />
        </mxCell>
        <mxCell id="5nu_3Wuoea0Fm3jb08SG-9" value="" style="endArrow=classic;html=1;rounded=0;" edge="1" parent="5nu_3Wuoea0Fm3jb08SG-3" source="5nu_3Wuoea0Fm3jb08SG-8" target="5nu_3Wuoea0Fm3jb08SG-8">
          <mxGeometry width="50" height="50" relative="1" as="geometry">
            <mxPoint x="21.25" y="640" as="sourcePoint" />
            <mxPoint x="71.25" y="590" as="targetPoint" />
            <Array as="points">
              <mxPoint x="161.25" y="620" />
            </Array>
          </mxGeometry>
        </mxCell>
        <mxCell id="5nu_3Wuoea0Fm3jb08SG-10" value="&amp;lt;refresh&amp;gt;" style="text;html=1;strokeColor=none;fillColor=none;align=center;verticalAlign=middle;whiteSpace=wrap;rounded=0;" vertex="1" parent="5nu_3Wuoea0Fm3jb08SG-3">
          <mxGeometry x="91.25" y="590" width="90" height="20" as="geometry" />
        </mxCell>
        <mxCell id="5nu_3Wuoea0Fm3jb08SG-11" value="Prijavljeni korisnik" style="shape=umlActor;verticalLabelPosition=bottom;verticalAlign=top;html=1;outlineConnect=0;fontStyle=4;strokeColor=#b85450;fillColor=#f8cecc;" vertex="1" parent="1">
          <mxGeometry x="120" y="160" width="30" height="60" as="geometry" />
        </mxCell>
        <mxCell id="5nu_3Wuoea0Fm3jb08SG-12" value="" style="endArrow=none;dashed=1;html=1;rounded=0;" edge="1" parent="1" source="5nu_3Wuoea0Fm3jb08SG-15">
          <mxGeometry width="50" height="50" relative="1" as="geometry">
            <mxPoint x="135" y="320" as="sourcePoint" />
            <mxPoint x="134.7" y="240" as="targetPoint" />
          </mxGeometry>
        </mxCell>
        <mxCell id="5nu_3Wuoea0Fm3jb08SG-13" value="" style="endArrow=none;dashed=1;html=1;rounded=0;" edge="1" parent="1" source="5nu_3Wuoea0Fm3jb08SG-25">
          <mxGeometry width="50" height="50" relative="1" as="geometry">
            <mxPoint x="134.7" y="540" as="sourcePoint" />
            <mxPoint x="134.7" y="320" as="targetPoint" />
          </mxGeometry>
        </mxCell>
        <mxCell id="5nu_3Wuoea0Fm3jb08SG-14" value="" style="endArrow=none;dashed=1;html=1;rounded=0;" edge="1" parent="1" target="5nu_3Wuoea0Fm3jb08SG-15">
          <mxGeometry width="50" height="50" relative="1" as="geometry">
            <mxPoint x="135" y="320" as="sourcePoint" />
            <mxPoint x="134.7" y="240" as="targetPoint" />
          </mxGeometry>
        </mxCell>
        <mxCell id="5nu_3Wuoea0Fm3jb08SG-15" value="" style="html=1;points=[];perimeter=orthogonalPerimeter;outlineConnect=0;targetShapes=umlLifeline;portConstraint=eastwest;newEdgeStyle={&quot;edgeStyle&quot;:&quot;elbowEdgeStyle&quot;,&quot;elbow&quot;:&quot;vertical&quot;,&quot;curved&quot;:0,&quot;rounded&quot;:0};" vertex="1" parent="1">
          <mxGeometry x="130" y="270" width="10" height="30" as="geometry" />
        </mxCell>
        <mxCell id="5nu_3Wuoea0Fm3jb08SG-16" value="&lt;u&gt;Skript za logovanje&lt;/u&gt;" style="shape=umlLifeline;perimeter=lifelinePerimeter;whiteSpace=wrap;html=1;container=0;dropTarget=0;collapsible=0;recursiveResize=0;outlineConnect=0;portConstraint=eastwest;newEdgeStyle={&quot;edgeStyle&quot;:&quot;elbowEdgeStyle&quot;,&quot;elbow&quot;:&quot;vertical&quot;,&quot;curved&quot;:0,&quot;rounded&quot;:0};strokeColor=#b85450;fillColor=#f8cecc;" vertex="1" parent="1">
          <mxGeometry x="530" y="180" width="100" height="680" as="geometry" />
        </mxCell>
        <mxCell id="5nu_3Wuoea0Fm3jb08SG-17" value="" style="html=1;points=[];perimeter=orthogonalPerimeter;outlineConnect=0;targetShapes=umlLifeline;portConstraint=eastwest;newEdgeStyle={&quot;edgeStyle&quot;:&quot;elbowEdgeStyle&quot;,&quot;elbow&quot;:&quot;vertical&quot;,&quot;curved&quot;:0,&quot;rounded&quot;:0};" vertex="1" parent="5nu_3Wuoea0Fm3jb08SG-16">
          <mxGeometry x="45" y="80" width="10" height="170" as="geometry" />
        </mxCell>
        <mxCell id="5nu_3Wuoea0Fm3jb08SG-18" value="" style="html=1;points=[];perimeter=orthogonalPerimeter;outlineConnect=0;targetShapes=umlLifeline;portConstraint=eastwest;newEdgeStyle={&quot;edgeStyle&quot;:&quot;elbowEdgeStyle&quot;,&quot;elbow&quot;:&quot;vertical&quot;,&quot;curved&quot;:0,&quot;rounded&quot;:0};" vertex="1" parent="5nu_3Wuoea0Fm3jb08SG-16">
          <mxGeometry x="45" y="340" width="10" height="20" as="geometry" />
        </mxCell>
        <mxCell id="5nu_3Wuoea0Fm3jb08SG-19" value="" style="html=1;points=[];perimeter=orthogonalPerimeter;outlineConnect=0;targetShapes=umlLifeline;portConstraint=eastwest;newEdgeStyle={&quot;edgeStyle&quot;:&quot;elbowEdgeStyle&quot;,&quot;elbow&quot;:&quot;vertical&quot;,&quot;curved&quot;:0,&quot;rounded&quot;:0};movable=1;resizable=1;rotatable=1;deletable=1;editable=1;locked=0;connectable=1;" vertex="1" parent="5nu_3Wuoea0Fm3jb08SG-16">
          <mxGeometry x="45" y="380.74" width="10" height="30" as="geometry" />
        </mxCell>
        <mxCell id="5nu_3Wuoea0Fm3jb08SG-20" value="query(...)" style="html=1;verticalAlign=bottom;endArrow=block;edgeStyle=elbowEdgeStyle;elbow=vertical;curved=0;rounded=0;" edge="1" parent="5nu_3Wuoea0Fm3jb08SG-16" target="5nu_3Wuoea0Fm3jb08SG-37">
          <mxGeometry x="-0.1422" relative="1" as="geometry">
            <mxPoint x="49.99736842105244" y="380.00105263157894" as="sourcePoint" />
            <Array as="points" />
            <mxPoint x="180" y="381" as="targetPoint" />
            <mxPoint as="offset" />
          </mxGeometry>
        </mxCell>
        <mxCell id="5nu_3Wuoea0Fm3jb08SG-21" value="" style="html=1;points=[];perimeter=orthogonalPerimeter;outlineConnect=0;targetShapes=umlLifeline;portConstraint=eastwest;newEdgeStyle={&quot;edgeStyle&quot;:&quot;elbowEdgeStyle&quot;,&quot;elbow&quot;:&quot;vertical&quot;,&quot;curved&quot;:0,&quot;rounded&quot;:0};movable=1;resizable=1;rotatable=1;deletable=1;editable=1;locked=0;connectable=1;" vertex="1" parent="5nu_3Wuoea0Fm3jb08SG-16">
          <mxGeometry x="45" y="430" width="10" height="40" as="geometry" />
        </mxCell>
        <mxCell id="5nu_3Wuoea0Fm3jb08SG-22" value="" style="endArrow=classic;html=1;rounded=0;" edge="1" parent="5nu_3Wuoea0Fm3jb08SG-16" source="5nu_3Wuoea0Fm3jb08SG-21" target="5nu_3Wuoea0Fm3jb08SG-21">
          <mxGeometry width="50" height="50" relative="1" as="geometry">
            <mxPoint x="-10" y="470" as="sourcePoint" />
            <mxPoint x="40" y="420" as="targetPoint" />
            <Array as="points">
              <mxPoint x="130" y="450" />
            </Array>
          </mxGeometry>
        </mxCell>
        <mxCell id="5nu_3Wuoea0Fm3jb08SG-23" value="" style="html=1;points=[];perimeter=orthogonalPerimeter;outlineConnect=0;targetShapes=umlLifeline;portConstraint=eastwest;newEdgeStyle={&quot;edgeStyle&quot;:&quot;elbowEdgeStyle&quot;,&quot;elbow&quot;:&quot;vertical&quot;,&quot;curved&quot;:0,&quot;rounded&quot;:0};movable=1;resizable=1;rotatable=1;deletable=1;editable=1;locked=0;connectable=1;" vertex="1" parent="5nu_3Wuoea0Fm3jb08SG-16">
          <mxGeometry x="45" y="500" width="10" height="40" as="geometry" />
        </mxCell>
        <mxCell id="5nu_3Wuoea0Fm3jb08SG-24" value="" style="endArrow=none;dashed=1;html=1;rounded=0;" edge="1" parent="1" target="5nu_3Wuoea0Fm3jb08SG-25">
          <mxGeometry width="50" height="50" relative="1" as="geometry">
            <mxPoint x="135" y="860" as="sourcePoint" />
            <mxPoint x="134.7" y="320" as="targetPoint" />
          </mxGeometry>
        </mxCell>
        <mxCell id="5nu_3Wuoea0Fm3jb08SG-25" value="" style="html=1;points=[];perimeter=orthogonalPerimeter;outlineConnect=0;targetShapes=umlLifeline;portConstraint=eastwest;newEdgeStyle={&quot;edgeStyle&quot;:&quot;elbowEdgeStyle&quot;,&quot;elbow&quot;:&quot;vertical&quot;,&quot;curved&quot;:0,&quot;rounded&quot;:0};" vertex="1" parent="1">
          <mxGeometry x="130" y="360" width="10" height="30" as="geometry" />
        </mxCell>
        <mxCell id="5nu_3Wuoea0Fm3jb08SG-26" value="unos korisniÄkog imena" style="html=1;verticalAlign=bottom;endArrow=block;edgeStyle=elbowEdgeStyle;elbow=vertical;curved=0;rounded=0;" edge="1" parent="1" target="5nu_3Wuoea0Fm3jb08SG-40">
          <mxGeometry x="-0.1396" relative="1" as="geometry">
            <mxPoint x="140" y="360" as="sourcePoint" />
            <Array as="points">
              <mxPoint x="240" y="360.29999999999995" />
            </Array>
            <mxPoint x="399.5" y="360.29999999999995" as="targetPoint" />
            <mxPoint as="offset" />
          </mxGeometry>
        </mxCell>
        <mxCell id="5nu_3Wuoea0Fm3jb08SG-27" value="" style="html=1;points=[];perimeter=orthogonalPerimeter;outlineConnect=0;targetShapes=umlLifeline;portConstraint=eastwest;newEdgeStyle={&quot;edgeStyle&quot;:&quot;elbowEdgeStyle&quot;,&quot;elbow&quot;:&quot;vertical&quot;,&quot;curved&quot;:0,&quot;rounded&quot;:0};" vertex="1" parent="1">
          <mxGeometry x="130" y="410.87" width="10" height="30" as="geometry" />
        </mxCell>
        <mxCell id="5nu_3Wuoea0Fm3jb08SG-28" value="" style="html=1;points=[];perimeter=orthogonalPerimeter;outlineConnect=0;targetShapes=umlLifeline;portConstraint=eastwest;newEdgeStyle={&quot;edgeStyle&quot;:&quot;elbowEdgeStyle&quot;,&quot;elbow&quot;:&quot;vertical&quot;,&quot;curved&quot;:0,&quot;rounded&quot;:0};" vertex="1" parent="1">
          <mxGeometry x="130" y="460" width="10" height="30" as="geometry" />
        </mxCell>
        <mxCell id="5nu_3Wuoea0Fm3jb08SG-29" value="submit()" style="html=1;verticalAlign=bottom;endArrow=block;edgeStyle=elbowEdgeStyle;elbow=vertical;curved=0;rounded=0;" edge="1" parent="1" source="5nu_3Wuoea0Fm3jb08SG-28" target="5nu_3Wuoea0Fm3jb08SG-40">
          <mxGeometry x="-0.1396" relative="1" as="geometry">
            <mxPoint x="87.5" y="460" as="sourcePoint" />
            <Array as="points">
              <mxPoint x="140.5" y="460" />
            </Array>
            <mxPoint x="347" y="460.29999999999995" as="targetPoint" />
            <mxPoint as="offset" />
          </mxGeometry>
        </mxCell>
        <mxCell id="5nu_3Wuoea0Fm3jb08SG-30" value="" style="html=1;verticalAlign=bottom;endArrow=block;edgeStyle=elbowEdgeStyle;elbow=vertical;curved=0;rounded=0;" edge="1" parent="1" target="5nu_3Wuoea0Fm3jb08SG-4">
          <mxGeometry x="-0.0446" relative="1" as="geometry">
            <mxPoint x="140" y="270" as="sourcePoint" />
            <Array as="points" />
            <mxPoint x="270" y="270" as="targetPoint" />
            <mxPoint as="offset" />
          </mxGeometry>
        </mxCell>
        <mxCell id="5nu_3Wuoea0Fm3jb08SG-31" value="" style="html=1;points=[];perimeter=orthogonalPerimeter;outlineConnect=0;targetShapes=umlLifeline;portConstraint=eastwest;newEdgeStyle={&quot;edgeStyle&quot;:&quot;elbowEdgeStyle&quot;,&quot;elbow&quot;:&quot;vertical&quot;,&quot;curved&quot;:0,&quot;rounded&quot;:0};" vertex="1" parent="1">
          <mxGeometry x="430" y="500" height="20" as="geometry" />
        </mxCell>
        <mxCell id="5nu_3Wuoea0Fm3jb08SG-32" value="login (email, password)" style="html=1;verticalAlign=bottom;endArrow=block;edgeStyle=elbowEdgeStyle;elbow=vertical;curved=0;rounded=0;" edge="1" parent="1" target="5nu_3Wuoea0Fm3jb08SG-18">
          <mxGeometry x="-0.1422" relative="1" as="geometry">
            <mxPoint x="429.99736842105244" y="519.2610526315789" as="sourcePoint" />
            <Array as="points" />
            <mxPoint x="593.75" y="519.14" as="targetPoint" />
            <mxPoint as="offset" />
          </mxGeometry>
        </mxCell>
        <mxCell id="5nu_3Wuoea0Fm3jb08SG-33" value="prijavljivanje" style="text;html=1;strokeColor=none;fillColor=none;align=center;verticalAlign=middle;whiteSpace=wrap;rounded=0;" vertex="1" parent="1">
          <mxGeometry x="170" y="250" width="60" height="20" as="geometry" />
        </mxCell>
        <mxCell id="5nu_3Wuoea0Fm3jb08SG-34" value="Baza podataka" style="shape=umlActor;verticalLabelPosition=bottom;verticalAlign=top;html=1;outlineConnect=0;fontStyle=4;strokeColor=#b85450;fillColor=#f8cecc;" vertex="1" parent="1">
          <mxGeometry x="710" y="160" width="30" height="60" as="geometry" />
        </mxCell>
        <mxCell id="5nu_3Wuoea0Fm3jb08SG-35" value="" style="endArrow=none;dashed=1;html=1;rounded=0;" edge="1" parent="1">
          <mxGeometry width="50" height="50" relative="1" as="geometry">
            <mxPoint x="724.6" y="560.74" as="sourcePoint" />
            <mxPoint x="724.6" y="239.37" as="targetPoint" />
          </mxGeometry>
        </mxCell>
        <mxCell id="5nu_3Wuoea0Fm3jb08SG-36" value="" style="endArrow=none;dashed=1;html=1;rounded=0;" edge="1" parent="1">
          <mxGeometry width="50" height="50" relative="1" as="geometry">
            <mxPoint x="725" y="860" as="sourcePoint" />
            <mxPoint x="724.6" y="580.74" as="targetPoint" />
          </mxGeometry>
        </mxCell>
        <mxCell id="5nu_3Wuoea0Fm3jb08SG-37" value="" style="html=1;points=[];perimeter=orthogonalPerimeter;outlineConnect=0;targetShapes=umlLifeline;portConstraint=eastwest;newEdgeStyle={&quot;edgeStyle&quot;:&quot;elbowEdgeStyle&quot;,&quot;elbow&quot;:&quot;vertical&quot;,&quot;curved&quot;:0,&quot;rounded&quot;:0};" vertex="1" parent="1">
          <mxGeometry x="720" y="560.74" width="10" height="20" as="geometry" />
        </mxCell>
        <mxCell id="5nu_3Wuoea0Fm3jb08SG-38" value="generateSID()" style="text;html=1;strokeColor=none;fillColor=none;align=center;verticalAlign=middle;whiteSpace=wrap;rounded=0;" vertex="1" parent="1">
          <mxGeometry x="590" y="600" width="90" height="20" as="geometry" />
        </mxCell>
        <mxCell id="5nu_3Wuoea0Fm3jb08SG-39" value="" style="endArrow=classic;html=1;rounded=0;" edge="1" parent="1" target="5nu_3Wuoea0Fm3jb08SG-46">
          <mxGeometry width="50" height="50" relative="1" as="geometry">
            <mxPoint x="579.9999999999998" y="680" as="sourcePoint" />
            <mxPoint x="440.0000000000002" y="680" as="targetPoint" />
          </mxGeometry>
        </mxCell>
        <mxCell id="5nu_3Wuoea0Fm3jb08SG-40" value="&lt;u&gt;Forma za prijavljivanje&lt;/u&gt;" style="shape=umlLifeline;perimeter=lifelinePerimeter;whiteSpace=wrap;html=1;container=0;dropTarget=0;collapsible=0;recursiveResize=0;outlineConnect=0;portConstraint=eastwest;newEdgeStyle={&quot;edgeStyle&quot;:&quot;elbowEdgeStyle&quot;,&quot;elbow&quot;:&quot;vertical&quot;,&quot;curved&quot;:0,&quot;rounded&quot;:0};movable=1;resizable=1;rotatable=1;deletable=1;editable=1;locked=0;connectable=1;strokeColor=#b85450;fillColor=#f8cecc;" vertex="1" parent="1">
          <mxGeometry x="380" y="180" width="100" height="680" as="geometry" />
        </mxCell>
        <mxCell id="5nu_3Wuoea0Fm3jb08SG-41" value="" style="html=1;points=[];perimeter=orthogonalPerimeter;outlineConnect=0;targetShapes=umlLifeline;portConstraint=eastwest;newEdgeStyle={&quot;edgeStyle&quot;:&quot;elbowEdgeStyle&quot;,&quot;elbow&quot;:&quot;vertical&quot;,&quot;curved&quot;:0,&quot;rounded&quot;:0};" vertex="1" parent="5nu_3Wuoea0Fm3jb08SG-40">
          <mxGeometry x="45" y="180" width="10" height="20" as="geometry" />
        </mxCell>
        <mxCell id="5nu_3Wuoea0Fm3jb08SG-42" value="" style="html=1;points=[];perimeter=orthogonalPerimeter;outlineConnect=0;targetShapes=umlLifeline;portConstraint=eastwest;newEdgeStyle={&quot;edgeStyle&quot;:&quot;elbowEdgeStyle&quot;,&quot;elbow&quot;:&quot;vertical&quot;,&quot;curved&quot;:0,&quot;rounded&quot;:0};" vertex="1" parent="5nu_3Wuoea0Fm3jb08SG-40">
          <mxGeometry x="45" y="230.87" width="10" height="20" as="geometry" />
        </mxCell>
        <mxCell id="5nu_3Wuoea0Fm3jb08SG-43" value="unos lozinke" style="html=1;verticalAlign=bottom;endArrow=block;edgeStyle=elbowEdgeStyle;elbow=vertical;curved=0;rounded=0;movable=1;resizable=1;rotatable=1;deletable=1;editable=1;locked=0;connectable=1;" edge="1" parent="5nu_3Wuoea0Fm3jb08SG-40">
          <mxGeometry x="-0.1396" relative="1" as="geometry">
            <mxPoint x="-245" y="230" as="sourcePoint" />
            <Array as="points">
              <mxPoint x="-110" y="230.3" />
            </Array>
            <mxPoint x="49.5" y="230.3" as="targetPoint" />
            <mxPoint as="offset" />
          </mxGeometry>
        </mxCell>
        <mxCell id="5nu_3Wuoea0Fm3jb08SG-44" value="" style="html=1;points=[];perimeter=orthogonalPerimeter;outlineConnect=0;targetShapes=umlLifeline;portConstraint=eastwest;newEdgeStyle={&quot;edgeStyle&quot;:&quot;elbowEdgeStyle&quot;,&quot;elbow&quot;:&quot;vertical&quot;,&quot;curved&quot;:0,&quot;rounded&quot;:0};" vertex="1" parent="5nu_3Wuoea0Fm3jb08SG-40">
          <mxGeometry x="45" y="280" width="10" height="20" as="geometry" />
        </mxCell>
        <mxCell id="5nu_3Wuoea0Fm3jb08SG-45" value="" style="html=1;points=[];perimeter=orthogonalPerimeter;outlineConnect=0;targetShapes=umlLifeline;portConstraint=eastwest;newEdgeStyle={&quot;edgeStyle&quot;:&quot;elbowEdgeStyle&quot;,&quot;elbow&quot;:&quot;vertical&quot;,&quot;curved&quot;:0,&quot;rounded&quot;:0};movable=1;resizable=1;rotatable=1;deletable=1;editable=1;locked=0;connectable=1;" vertex="1" parent="5nu_3Wuoea0Fm3jb08SG-40">
          <mxGeometry x="45" y="340" width="10" height="30" as="geometry" />
        </mxCell>
        <mxCell id="5nu_3Wuoea0Fm3jb08SG-46" value="" style="html=1;points=[];perimeter=orthogonalPerimeter;outlineConnect=0;targetShapes=umlLifeline;portConstraint=eastwest;newEdgeStyle={&quot;edgeStyle&quot;:&quot;elbowEdgeStyle&quot;,&quot;elbow&quot;:&quot;vertical&quot;,&quot;curved&quot;:0,&quot;rounded&quot;:0};" vertex="1" parent="5nu_3Wuoea0Fm3jb08SG-40">
          <mxGeometry x="45" y="500" width="10" height="20" as="geometry" />
        </mxCell>
        <mxCell id="5nu_3Wuoea0Fm3jb08SG-47" value="" style="html=1;points=[];perimeter=orthogonalPerimeter;outlineConnect=0;targetShapes=umlLifeline;portConstraint=eastwest;newEdgeStyle={&quot;edgeStyle&quot;:&quot;elbowEdgeStyle&quot;,&quot;elbow&quot;:&quot;vertical&quot;,&quot;curved&quot;:0,&quot;rounded&quot;:0};" vertex="1" parent="5nu_3Wuoea0Fm3jb08SG-40">
          <mxGeometry x="45" y="120" width="10" height="20" as="geometry" />
        </mxCell>
        <mxCell id="5nu_3Wuoea0Fm3jb08SG-48" value="" style="html=1;points=[];perimeter=orthogonalPerimeter;outlineConnect=0;targetShapes=umlLifeline;portConstraint=eastwest;newEdgeStyle={&quot;edgeStyle&quot;:&quot;elbowEdgeStyle&quot;,&quot;elbow&quot;:&quot;vertical&quot;,&quot;curved&quot;:0,&quot;rounded&quot;:0};movable=1;resizable=1;rotatable=1;deletable=1;editable=1;locked=0;connectable=1;" vertex="1" parent="5nu_3Wuoea0Fm3jb08SG-40">
          <mxGeometry x="45" y="550" width="10" height="40" as="geometry" />
        </mxCell>
        <mxCell id="5nu_3Wuoea0Fm3jb08SG-49" value="" style="endArrow=classic;html=1;rounded=0;" edge="1" parent="5nu_3Wuoea0Fm3jb08SG-40" target="5nu_3Wuoea0Fm3jb08SG-7">
          <mxGeometry width="50" height="50" relative="1" as="geometry">
            <mxPoint x="49.99999999999977" y="550" as="sourcePoint" />
            <mxPoint x="-95" y="550" as="targetPoint" />
          </mxGeometry>
        </mxCell>
        <mxCell id="5nu_3Wuoea0Fm3jb08SG-50" value="SID" style="text;html=1;strokeColor=none;fillColor=none;align=center;verticalAlign=middle;whiteSpace=wrap;rounded=0;" vertex="1" parent="5nu_3Wuoea0Fm3jb08SG-40">
          <mxGeometry x="-45" y="530" width="60" height="20" as="geometry" />
        </mxCell>
        <mxCell id="5nu_3Wuoea0Fm3jb08SG-51" value="SID" style="text;html=1;strokeColor=none;fillColor=none;align=center;verticalAlign=middle;whiteSpace=wrap;rounded=0;" vertex="1" parent="1">
          <mxGeometry x="485" y="660" width="60" height="20" as="geometry" />
        </mxCell>
      </root>
    </mxGraphModel>
  </diagram>
</mxfile>
